<?xml version="1.0" encoding="UTF-8" standalone="no"?>
<!-- Generator: Blender, SVG Export for Grease Pencil - v2.1 -->

<svg
   version="1.1"
   x="0px"
   y="0px"
   width="512"
   height="512"
   viewBox="0 0 512 512"
   id="svg1"
   sodipodi:docname="zummon_logo-.svg"
   inkscape:version="1.4.3 (0d15f75042, 2025-12-25)"
   xmlns:inkscape="http://www.inkscape.org/namespaces/inkscape"
   xmlns:sodipodi="http://sodipodi.sourceforge.net/DTD/sodipodi-0.dtd"
   xmlns="http://www.w3.org/2000/svg"
   xmlns:svg="http://www.w3.org/2000/svg">
  <defs
     id="defs1">
    <rect
       x="574.09161"
       y="158.76112"
       width="805.14575"
       height="260.82187"
       id="rect1" />
    <rect
       x="574.09161"
       y="158.76112"
       width="1452.6516"
       height="373.08295"
       id="rect1-0" />
    <rect
       x="574.09161"
       y="158.76112"
       width="805.14575"
       height="260.82187"
       id="rect1-03" />
    <rect
       x="574.09161"
       y="158.76112"
       width="805.14575"
       height="260.82187"
       id="rect1-3" />
    <rect
       x="574.09161"
       y="158.76112"
       width="805.14575"
       height="260.82187"
       id="rect1-3-4" />
    <rect
       x="574.09161"
       y="158.76112"
       width="805.14575"
       height="260.82187"
       id="rect1-3-4-7" />
    <rect
       x="574.09161"
       y="158.76112"
       width="805.14575"
       height="260.82187"
       id="rect1-8" />
    <rect
       x="574.09161"
       y="158.76112"
       width="805.14575"
       height="260.82187"
       id="rect1-8-2" />
    <rect
       x="574.09161"
       y="158.76112"
       width="805.14575"
       height="260.82187"
       id="rect1-8-2-5" />
    <rect
       x="574.09161"
       y="158.76112"
       width="805.14575"
       height="260.82187"
       id="rect1-8-2-7" />
    <rect
       x="574.09161"
       y="158.76112"
       width="805.14575"
       height="260.82187"
       id="rect1-8-4" />
    <rect
       x="574.09161"
       y="158.76112"
       width="805.14575"
       height="260.82187"
       id="rect1-8-2-2" />
    <rect
       x="574.09161"
       y="158.76112"
       width="805.14575"
       height="260.82187"
       id="rect1-8-2-5-9" />
    <rect
       x="574.09161"
       y="158.76112"
       width="805.14575"
       height="260.82187"
       id="rect1-8-2-7-6" />
    <rect
       x="574.09161"
       y="158.76112"
       width="805.14575"
       height="260.82187"
       id="rect1-2" />
    <rect
       x="574.09161"
       y="158.76112"
       width="805.14575"
       height="260.82187"
       id="rect1-8-9" />
    <rect
       x="574.09161"
       y="158.76112"
       width="805.14575"
       height="260.82187"
       id="rect1-8-2-7-6-0" />
    <rect
       x="574.09161"
       y="158.76112"
       width="805.14575"
       height="260.82187"
       id="rect1-8-2-7-6-0-1" />
    <rect
       x="574.09161"
       y="158.76112"
       width="805.14575"
       height="260.82187"
       id="rect1-8-2-7-6-0-1-9" />
    <rect
       x="574.09161"
       y="158.76112"
       width="805.14575"
       height="260.82187"
       id="rect1-8-2-7-6-0-1-9-4" />
  </defs>
  <sodipodi:namedview
     id="namedview1"
     pagecolor="#505050"
     bordercolor="#ffffff"
     borderopacity="1"
     inkscape:showpageshadow="0"
     inkscape:pageopacity="0"
     inkscape:pagecheckerboard="1"
     inkscape:deskcolor="#505050"
     inkscape:zoom="0.70546235"
     inkscape:cx="279.95824"
     inkscape:cy="412.49544"
     inkscape:window-width="1829"
     inkscape:window-height="1113"
     inkscape:window-x="0"
     inkscape:window-y="0"
     inkscape:window-maximized="1"
     inkscape:current-layer="layer1" />
  <g
     inkscape:groupmode="layer"
     id="layer1"
     inkscape:label="zummon_logo">
    <g
       id="g2"
       transform="scale(0.5)"
       inkscape:label="g2">
      <rect
         style="display:none;fill:#ffaaaa;stroke:none;stroke-width:1.88976"
         id="rect2"
         width="1024"
         height="1024"
         x="0"
         y="0"
         ry="5.5506382"
         inkscape:label="bg" />
      <path
         d="m 691.76984,287.95853 3.90198,-5.26728 3.80542,-6.59166 3.9186,-10.7234 1.13623,-19.39953 -0.11674,-1.26941 -5.55776,-17.10311 -11.19672,-14.07256 -0.91391,-0.66503 -11.87372,-7.75639 -13.56414,-4.14244 -1.55694,0.0236 -15.52276,0.38844 -9.1253,2.44182 -6.64219,2.8225 -5.81139,3.06911 -5.77789,3.39349 -5.99541,3.70296 -6.39626,4.00999 -6.99722,4.3128 -7.57548,4.54545 -8.06793,4.66918 -8.4031,4.65618 -8.69276,4.49128 -9.00784,4.25341 -9.27342,4.01384 -9.37612,3.75394 -9.4005,3.47202 -9.36614,3.17872 -9.28813,2.87475 -9.19956,2.56942 -9.08801,2.26739 -8.96255,1.97367 -8.81053,1.68807 -8.64578,1.41081 -8.45924,1.14181 -8.25648,0.88002 c -89.5133,0.0929 -109.35223,-52.71316 -24.49598,56.64543 l 6.39695,8.28911 6.46575,8.44328 6.50238,8.59747 6.52294,8.76574 6.55239,8.97727 6.6114,9.19927 6.61595,9.40691 6.61604,9.63623 c 2.2084,3.29609 26.61338,40.38885 26.61338,40.38885 l 6.79703,10.60908 6.81145,10.75301 6.84925,10.85888 6.82127,10.82885 6.87557,10.8092 6.85427,10.68146 c 27.12627,42.18886 30.63946,47.46363 38.28365,58.8078 l 6.08583,8.61963 5.9655,8.05466 5.83774,7.48658 5.65903,6.88754 5.6183,6.4012 5.51214,5.84947 5.47697,5.35203 5.52694,4.89793 5.49431,4.37449 5.6089,3.93574 5.72382,3.47148 5.85254,2.98868 5.92265,2.46035 6.00558,1.92375 6.01057,1.35953 6.06438,0.79691 5.91794,0.22251 5.82231,-0.33022 5.62949,-0.85968 5.45949,-1.38009 5.19607,-1.86228 4.92759,-2.324 4.81215,-2.89847 4.26899,-3.19448 4.18382,-3.87378 3.75128,-4.3408 3.21257,-4.67907 2.84147,-5.40701 2.10725,-5.52533 1.51565,-6.147 0.73033,-6.10203 -0.006,-6.32989 -0.77733,-6.38338 -1.52087,-6.27388 -2.21694,-6.09221 -2.91029,-5.93867 -3.41891,-5.52851 -4.17095,-5.49222 -4.52277,-4.9678 -5.21697,-4.82439 -5.59927,-4.38901 -6.15684,-4.09864 -6.54578,-3.69561 -7.00159,-3.33511 -7.27864,-2.91029 -7.63383,-2.53541 -7.90895,-2.15013 -8.1296,-1.77975 -8.34746,-1.44296 -8.53141,-1.13207 -8.69286,-0.85114 -8.83598,-0.60453 -9.01615,-0.38684 c -18.09899,-0.37769 -31.11111,-0.51944 -67.50844,1.83961 l -10.35128,0.76439 -10.51682,0.86462 -10.72112,0.95425 -10.90512,1.03974 -11.10009,1.11283 -11.26092,1.18092 -11.3854,1.23349 -11.49983,1.29505 -11.8775,1.47645 c 1.20641,-2.08306 3.38708,-5.60096 4.75582,-7.65713 l 4.3616,-6.44207 4.31273,-6.29501 4.25933,-6.11431 4.21447,-5.94787 4.17223,-5.77879 4.1315,-5.60926 4.14941,-5.47981 4.18905,-5.38789 4.21434,-5.28716 4.24476,-5.17749 4.34117,-5.11503 4.44276,-5.08259 c 10.08238,-11.22665 17.20881,-18.88552 33.61644,-34.47514 l 5.2189,-4.81938 5.35814,-4.79846 5.50525,-4.80475 5.63075,-4.77978 5.76926,-4.76396 5.92183,-4.76619 6.06907,-4.75872 6.22988,-4.77401 6.37971,-4.77867 6.54283,-4.80748 6.69596,-4.84146 6.8263,-4.84234 7.0202,-4.9613 7.14401,-5.039 7.29454,-5.22776 7.28587,-5.27873 7.22536,-5.30888 7.08476,-5.2893 6.88216,-5.23744 6.62156,-5.16185 6.29351,-5.05866 5.91805,-4.9559 5.45678,-4.79603 4.97468,-4.65706 4.44673,-4.49004 z m -131.12218,26.94205 -4.78642,6.81224 -4.76597,6.66636 -4.74696,6.48557 -4.7574,6.32969 -4.76256,6.17064 -4.77757,6.01542 -4.79063,5.86494 -4.80504,5.71564 -4.82136,5.57424 -4.83282,5.42774 -4.86503,5.29765 c -9.02634,9.57282 -15.06561,15.82725 -29.65301,29.52489 l -5.03708,4.62279 -5.07151,4.54608 -5.11658,4.48253 -5.18144,4.45129 -5.25982,4.46953 -5.28812,4.41819 -5.35263,4.39659 -5.45667,4.42284 -5.57694,4.48637 -5.67039,4.50138 -5.81363,4.56933 -5.95577,4.63266 -6.10537,4.70936 -6.21674,4.72843 -6.39292,4.84675 -6.51273,4.90969 -6.6263,4.97447 -6.74082,5.06322 -6.83131,5.1599 -6.86791,5.22429 -6.88665,5.31529 -6.82589,5.35891 -6.69575,5.35765 -6.52657,5.36591 -6.23828,5.27672 -5.84983,5.09608 -5.40846,4.88372 -5.08532,4.92021 -4.38137,4.43485 -4.2821,4.90418 -4.14855,5.66859 -4.48479,8.25013 -4.44009,16.0991 0.75608,18.43584 7.09114,17.03437 0.7655,0.96438 8.59525,10.22306 10.90243,7.71532 12.49996,4.70542 1.65711,0.0575 20.03905,0.29231 10.62444,-2.94154 7.7917,-3.47327 6.93315,-3.82111 6.89858,-4.2211 7.08197,-4.5993 7.07524,-4.7644 7.48593,-4.96481 7.93521,-5.08913 8.33985,-5.10213 8.70866,-5.02294 9.02224,-4.86287 9.2389,-4.62617 9.40928,-4.32631 9.61829,-4.00183 9.79381,-3.66753 9.84819,-3.29367 9.83901,-2.89638 9.80993,-2.49627 9.69274,-2.09963 9.60092,-1.71765 9.43522,-1.35312 9.31716,-1.00795 9.10817,-0.68131 8.94698,-0.36981 8.73738,-0.0764 c 120.01605,8.18852 127.35119,58.97693 29.05543,-51.87408 l -7.63737,-8.78212 -7.74066,-9.06419 -7.71132,-9.29293 -7.63168,-9.50821 -7.4552,-9.71059 -7.2793,-9.97425 -7.13205,-10.2216 -6.92602,-10.37458 -6.71977,-10.4321 C 524.86036,406.91142 514.15495,389.89073 503.7164,372.70494 l -5.92212,-9.93477 -5.77082,-9.82351 -5.59788,-9.67117 -5.56685,-9.62413 -5.5226,-9.50821 c -15.14499,-25.87843 -20.49908,-34.63996 -32.10159,-53.15933 l -5.04451,-7.95496 -4.86945,-7.60066 -4.65726,-7.22559 -4.42132,-6.8152 -4.19125,-6.35873 -4.18599,-6.03309 -4.64437,-5.94538 -5.1998,-5.60505 -5.68154,-4.96062 -5.67212,-3.95761 -6.30893,-3.3519 -6.33273,-2.40334 -6.23621,-1.53403 -6.22035,-0.76934 -5.96829,-0.059 -5.54251,0.52172 -5.47758,1.07312 -5.3331,1.61338 -5.29378,2.22699 -4.98389,2.74235 -5.42752,3.92894 -4.07592,3.69107 -4.51116,5.14805 -3.97852,6.00131 -3.16629,6.48491 -2.47698,7.5618 -1.43268,8.32353 -0.16659,9.18316 1.20521,9.32048 2.90839,10.09042 4.78701,10.1304 6.34056,9.29115 7.78789,8.27943 8.53619,6.76268 8.99063,5.37506 9.1682,4.13256 9.2407,3.09325 9.2209,2.21665 9.1665,1.49369 9.12283,0.89723 9.078,0.40476 h 9.05176 c 16.54424,-0.61401 24.56786,-0.92955 64.49849,-6.65607 l 9.57499,-1.39212 9.70835,-1.39641 9.85608,-1.37727 10.01329,-1.33693 10.17789,-1.285 10.35475,-1.23144 10.54461,-1.19183 10.75392,-1.19273 z"
         fill="#000000"
         stroke="none"
         fill-opacity="1"
         fill-rule="nonzero"
         id="path1"
         sodipodi:nodetypes="ccccccccccccccccccccccccccccccccccccccccccccccccccccccccccccccccccccccccccccccccccccccccccccccccccccccccccccccccccccccccccccccccccccccccccccccccccccccccccccccccccccccccccccccccccccccccccccccccccccccccccccccccccccccccccccccccccccccccccccccccccccccccccccccccccccccccccccccccccccccccccccccccccccccccccccccccc"
         style="fill:#d35f5f;stroke-width:0.605192" />
      <text
         xml:space="preserve"
         id="text1-9"
         style="font-size:115.601px;font-family:'Adwaita Sans';-inkscape-font-specification:'Adwaita Sans, @opsz=32';font-variation-settings:'opsz' 32;writing-mode:lr-tb;direction:ltr;white-space:pre;shape-inside:url(#rect1-8);display:inline;fill:#333333;stroke:none;stroke-width:1.88976"
         transform="matrix(1.7950282,0,0,1.7950282,-956.66206,343.0032)"
         inkscape:label="text"><tspan
           x="574.0918"
           y="265.76728"
           id="tspan4"><tspan
             style="font-weight:bold;font-family:P052;-inkscape-font-specification:'P052 Bold'"
             id="tspan1">Zummon</tspan></tspan></text>
    </g>
  </g>
</svg>
