<?xml version="1.0" encoding="UTF-8" standalone="no"?>
<!-- Generator: Blender, SVG Export for Grease Pencil - v2.1 -->

<svg
   version="1.1"
   x="0px"
   y="0px"
   width="512"
   height="512"
   viewBox="0 0 512 512"
   id="svg1"
   sodipodi:docname="zummon_logogram.svg"
   inkscape:version="1.4.3 (0d15f75042, 2025-12-25)"
   xmlns:inkscape="http://www.inkscape.org/namespaces/inkscape"
   xmlns:sodipodi="http://sodipodi.sourceforge.net/DTD/sodipodi-0.dtd"
   xmlns="http://www.w3.org/2000/svg"
   xmlns:svg="http://www.w3.org/2000/svg">
  <defs
     id="defs1">
    <rect
       x="574.09161"
       y="158.76112"
       width="805.14575"
       height="260.82187"
       id="rect1" />
    <rect
       x="574.09161"
       y="158.76112"
       width="1452.6516"
       height="373.08295"
       id="rect1-0" />
    <rect
       x="574.09161"
       y="158.76112"
       width="805.14575"
       height="260.82187"
       id="rect1-03" />
    <rect
       x="574.09161"
       y="158.76112"
       width="805.14575"
       height="260.82187"
       id="rect1-3" />
    <rect
       x="574.09161"
       y="158.76112"
       width="805.14575"
       height="260.82187"
       id="rect1-3-4" />
    <rect
       x="574.09161"
       y="158.76112"
       width="805.14575"
       height="260.82187"
       id="rect1-3-4-7" />
    <rect
       x="574.09161"
       y="158.76112"
       width="805.14575"
       height="260.82187"
       id="rect1-8" />
    <rect
       x="574.09161"
       y="158.76112"
       width="805.14575"
       height="260.82187"
       id="rect1-8-2" />
    <rect
       x="574.09161"
       y="158.76112"
       width="805.14575"
       height="260.82187"
       id="rect1-8-2-5" />
    <rect
       x="574.09161"
       y="158.76112"
       width="805.14575"
       height="260.82187"
       id="rect1-8-2-7" />
    <rect
       x="574.09161"
       y="158.76112"
       width="805.14575"
       height="260.82187"
       id="rect1-8-4" />
    <rect
       x="574.09161"
       y="158.76112"
       width="805.14575"
       height="260.82187"
       id="rect1-8-2-2" />
    <rect
       x="574.09161"
       y="158.76112"
       width="805.14575"
       height="260.82187"
       id="rect1-8-2-5-9" />
    <rect
       x="574.09161"
       y="158.76112"
       width="805.14575"
       height="260.82187"
       id="rect1-8-2-7-6" />
    <rect
       x="574.09161"
       y="158.76112"
       width="805.14575"
       height="260.82187"
       id="rect1-2" />
    <rect
       x="574.09161"
       y="158.76112"
       width="805.14575"
       height="260.82187"
       id="rect1-8-9" />
    <rect
       x="574.09161"
       y="158.76112"
       width="805.14575"
       height="260.82187"
       id="rect1-8-2-7-6-0" />
    <rect
       x="574.09161"
       y="158.76112"
       width="805.14575"
       height="260.82187"
       id="rect1-8-2-7-6-0-1" />
    <rect
       x="574.09161"
       y="158.76112"
       width="805.14575"
       height="260.82187"
       id="rect1-8-2-7-6-0-1-9" />
    <rect
       x="574.09161"
       y="158.76112"
       width="805.14575"
       height="260.82187"
       id="rect1-8-2-7-6-0-1-9-4" />
  </defs>
  <sodipodi:namedview
     id="namedview1"
     pagecolor="#505050"
     bordercolor="#ffffff"
     borderopacity="1"
     inkscape:showpageshadow="0"
     inkscape:pageopacity="0"
     inkscape:pagecheckerboard="1"
     inkscape:deskcolor="#505050"
     inkscape:zoom="0.70546235"
     inkscape:cx="275.70571"
     inkscape:cy="381.31021"
     inkscape:window-width="1829"
     inkscape:window-height="1113"
     inkscape:window-x="0"
     inkscape:window-y="0"
     inkscape:window-maximized="1"
     inkscape:current-layer="g2" />
  <g
     id="g2"
     transform="scale(0.5)"
     inkscape:label="zummon_logogram">
    <g
       id="g1">
      <rect
         style="display:none;fill:#ffaaaa;stroke:none;stroke-width:1.88976"
         id="rect2"
         width="1024"
         height="1024"
         x="0"
         y="0"
         ry="5.5506382"
         inkscape:label="bg" />
      <path
         d="m 862.69877,249.36772 7.61206,-10.27552 7.4237,-12.85915 7.64448,-20.91943 2.21658,-37.84501 -0.22773,-2.47639 -10.8422,-33.36511 -21.84279,-27.45304 -1.78288,-1.29736 -23.1635,-15.131326 -26.46121,-8.081158 -3.03731,0.04604 -30.28213,0.757777 -17.80182,4.763554 -12.95772,5.506192 -11.33699,5.987284 -11.27162,6.620087 -11.69598,7.22382 -12.47795,7.82277 -13.65033,8.4135 -14.7784,8.86736 -15.73909,9.10873 -16.39294,9.08338 -16.95802,8.76168 -17.57268,8.29764 -18.09079,7.83028 -18.29113,7.32327 -18.33869,6.77329 -18.27166,6.20111 -18.11948,5.60812 -17.94669,5.01248 -17.72908,4.42327 -17.48433,3.85028 -17.18777,3.29312 -16.86637,2.75224 -16.50246,2.22746 -16.10691,1.71676 C 211.76252,228.11695 173.06032,125.10179 338.59967,338.44081 l 12.4793,16.17057 12.61352,16.47133 12.68498,16.77213 12.72509,17.10038 12.78254,17.51305 12.89765,17.94613 12.90654,18.3512 12.90671,18.79855 c 4.30819,6.43009 51.91794,78.79142 51.91794,78.79142 l 13.25978,20.69641 13.28792,20.9772 13.36166,21.18373 13.30708,21.12515 13.41301,21.08681 13.37145,20.83762 c 52.91849,82.30291 59.7721,92.59304 74.68454,114.72348 l 11.87237,16.81536 11.63762,15.7132 11.38839,14.60498 11.03975,13.43635 10.9603,12.4876 10.7532,11.41127 10.68458,10.44085 10.78207,9.55498 10.71842,8.53385 10.94196,7.67792 11.16615,6.77224 11.41725,5.83038 11.55403,4.7997 11.71581,3.75289 11.72555,2.6522 11.83052,1.55463 11.54484,0.43408 11.35828,-0.6442 10.98213,-1.67708 10.65049,-2.69231 10.1366,-3.63298 9.61285,-4.5337 9.38764,-5.6544 8.32803,-6.23186 8.16189,-7.55705 7.31807,-8.46812 6.26715,-9.12803 5.5432,-10.54811 4.11087,-10.77893 2.95676,-11.9917 1.42474,-11.90396 -0.0117,-12.34848 -1.51643,-12.45284 -2.96695,-12.23921 -4.32485,-11.88481 -5.67745,-11.58529 -6.66969,-10.78513 -8.13677,-10.71434 -8.82312,-9.69128 -10.17737,-9.41152 -10.92317,-8.56218 -12.0109,-7.99571 -12.76964,-7.20947 -13.65885,-6.50621 -14.19932,-5.67745 -14.89224,-4.94613 -15.42894,-4.19452 -15.8594,-3.47197 -16.2844,-2.81496 -16.64325,-2.20847 -16.95821,-1.66042 -17.23742,-1.17933 -17.58889,-0.75465 c -35.30789,-0.73681 -60.69221,-1.01334 -131.69688,3.58875 l -20.19349,1.49118 -20.51644,1.68672 -20.91498,1.86157 -21.27394,2.02835 -21.65429,2.17093 -21.96803,2.30377 -22.21088,2.40631 -22.43411,2.52642 -23.17088,2.88028 c 2.35349,-4.06367 6.60759,-10.92647 9.27776,-14.93768 l 8.5087,-12.56733 8.41336,-12.28044 8.30919,-11.92792 8.22168,-11.60323 8.13927,-11.27338 8.05982,-10.94267 8.09475,-10.69012 8.17209,-10.51081 8.22142,-10.31431 8.28077,-10.10035 8.46885,-9.97851 8.66703,-9.91522 c 19.66891,-21.90119 33.5713,-36.84227 65.57965,-67.25483 l 10.18114,-9.40174 10.45277,-9.36094 10.73976,-9.37321 10.98458,-9.32449 11.2548,-9.29363 11.55243,-9.29799 11.83966,-9.28341 12.15338,-9.31324 12.44568,-9.32233 12.76389,-9.37853 13.06262,-9.44482 13.31688,-9.44654 13.69516,-9.67861 13.93668,-9.83018 14.23034,-10.19843 14.21343,-10.29785 14.09538,-10.35668 13.8211,-10.31848 13.42586,-10.2173 12.91748,-10.06985 12.27751,-9.86854 11.54506,-9.66807 10.6452,-9.3562 9.70471,-9.08509 8.67477,-8.75926 z m -255.79589,52.55911 -9.33745,13.28946 -9.29756,13.00488 -9.26047,12.65218 -9.28083,12.34809 -9.2909,12.03782 -9.32019,11.735 -9.34566,11.44145 -9.37377,11.15019 -9.40561,10.87435 -9.42797,10.58854 -9.4908,10.33477 c -17.60877,18.67486 -29.39031,30.87613 -57.84771,57.59777 l -9.82644,9.01824 -9.89361,8.86859 -9.98153,8.74461 -10.10806,8.68367 -10.26097,8.71925 -10.31618,8.6191 -10.44202,8.57696 -10.64498,8.62817 -10.87962,8.7521 -11.06191,8.78139 -11.34135,8.91395 -11.61864,9.03749 -11.91049,9.18711 -12.12774,9.22432 -12.47144,9.45514 -12.70517,9.57793 -12.92673,9.7043 -13.15013,9.87744 -13.32666,10.06604 -13.39807,10.19165 -13.43462,10.36918 -13.31609,10.45427 -13.06221,10.45182 -12.73217,10.46793 -12.16976,10.29394 -11.41197,9.94154 -10.55094,9.52726 -9.92055,9.59845 -8.54727,8.6516 -8.35361,9.56717 -8.093078,11.05841 -8.749022,16.09452 -8.661821,31.40646 1.474977,35.96503 13.833544,33.231 1.493353,1.88133 16.767797,19.94336 21.26869,15.05121 24.38518,9.17943 3.23273,0.11218 39.09259,0.57024 20.72638,-5.73842 15.20022,-6.77573 13.52533,-7.4543 13.45789,-8.23461 13.81566,-8.97241 13.80253,-9.29449 14.6037,-9.68545 15.48018,-9.92799 16.26955,-9.95334 16.98904,-9.79885 17.60077,-9.48659 18.02344,-9.02483 18.35582,-8.43986 18.76356,-7.80685 19.10597,-7.1547 19.21206,-6.42536 19.19415,-5.65032 19.13741,-4.86977 18.9088,-4.096 18.72968,-3.35083 18.40642,-2.6397 18.17611,-1.96633 17.76841,-1.32911 17.45396,-0.72143 17.04506,-0.14905 c 234.12982,15.97434 248.43937,115.05343 56.68194,-101.19704 L 671.91287,668.14941 656.81223,650.4668 641.76883,632.33796 626.88078,613.78914 612.33702,594.84552 598.13641,575.38754 584.22306,555.44703 570.71164,535.20808 557.60257,514.85693 C 537.08826,481.4235 516.20392,448.21918 495.84018,414.69279 L 484.28719,395.31183 473.02935,376.14792 462.10889,357.2812 451.24896,338.50624 440.47536,319.95743 C 410.93019,269.47325 400.48532,252.38107 377.8509,216.2531 l -9.84093,-15.5187 -9.49943,-14.82753 -9.08548,-14.09583 -8.6252,-13.29524 -8.17638,-12.40474 -8.16612,-11.76948 -9.06033,-11.59837 -10.14388,-10.93445 -11.08367,-9.67728 -11.06529,-7.720589 -12.30759,-6.538957 -12.35402,-4.688486 -12.16573,-2.992618 -12.13479,-1.500844 -11.64306,-0.115099 -10.81245,1.017783 -10.68578,2.093465 -10.40392,3.147415 -10.32722,4.344459 -9.72267,5.349834 -10.58812,7.664657 -7.95139,7.20062 -8.80047,10.04292 -7.76138,11.70748 -6.17686,12.6509 -4.83215,14.75172 -2.7949,16.23772 -0.32499,17.9147 2.35115,18.18258 5.67375,19.6846 9.3386,19.7626 12.3693,18.12537 15.19278,16.15168 16.65257,13.19278 17.53911,10.48578 17.88552,8.06189 18.02695,6.03437 17.98832,4.32429 17.8822,2.91392 17.79701,1.75034 17.70956,0.78961 h 17.65836 c 32.27485,-1.19782 47.92749,-1.81338 125.825,-12.9848 l 18.67909,-2.71578 18.93926,-2.72414 19.22744,-2.68681 19.53414,-2.60811 19.85524,-2.50681 20.20026,-2.40231 20.57065,-2.32505 20.97897,-2.3268 z"
         fill="#000000"
         stroke="none"
         fill-opacity="1"
         fill-rule="nonzero"
         id="path1"
         sodipodi:nodetypes="ccccccccccccccccccccccccccccccccccccccccccccccccccccccccccccccccccccccccccccccccccccccccccccccccccccccccccccccccccccccccccccccccccccccccccccccccccccccccccccccccccccccccccccccccccccccccccccccccccccccccccccccccccccccccccccccccccccccccccccccccccccccccccccccccccccccccccccccccccccccccccccccccccccccccccccccccc"
         style="fill:#d35f5f;stroke-width:1.18062" />
    </g>
  </g>
</svg>
